<svg xmlns="http://www.w3.org/2000/svg" width="1100" height="1136" viewBox="0 0 1100 1136" role="img" aria-labelledby="title desc"><title id="title">Absolute heap bytes for one seven-file corpus pass</title><desc id="desc">Sum of median B/op across seven files · contract-matched public operations · lower is better. Measured on Apple M4 Max at commit 6f25fb70.</desc><style>
text{fill:#24292f;font:14px -apple-system,BlinkMacSystemFont,"Segoe UI",sans-serif}.heading{font-size:21px;font-weight:600}.panel{font-size:16px;font-weight:600}.note{font-size:12px;fill:#57606a}.grid{stroke:#d0d7de;stroke-width:1}.portable{fill:#8250df}.simd{fill:#0969da}.reference{fill:#6e7781}.peer{fill:#1a7f37}@media(prefers-color-scheme:dark){text{fill:#f0f6fc}.note{fill:#8c959f}.grid{stroke:#30363d}.portable{fill:#bc8cff}.simd{fill:#58a6ff}.reference{fill:#8c959f}.peer{fill:#3fb950}}</style><text class="heading" x="14" y="28">Absolute heap bytes for one seven-file corpus pass</text><text class="note" x="14" y="50">Sum of median B/op across seven files · contract-matched public operations · lower is better</text><text class="note" x="14" y="69">Apple M4 Max · darwin/arm64 · go1.27-devel_03845e30f7 · commit 6f25fb70</text><text class="panel" x="14" y="109.0">Strict validation · valid input</text><line class="grid" x1="188.0" y1="120.0" x2="188.0" y2="318.0"/><text class="note" x="188.0" y="117.0" text-anchor="middle">0 B</text><line class="grid" x1="533.0" y1="120.0" x2="533.0" y2="318.0"/><text class="note" x="533.0" y="117.0" text-anchor="middle">23.84 MiB</text><line class="grid" x1="878.0" y1="120.0" x2="878.0" y2="318.0"/><text class="note" x="878.0" y="117.0" text-anchor="middle">47.68 MiB</text><text x="14" y="148.0">vibejson portable</text><rect class="portable" x="188.0" y="135.0" width="1.0" height="16" rx="2"/><text x="196.0" y="148.0">0 B</text><text x="14" y="178.0">vibejson SIMD</text><rect class="simd" x="188.0" y="165.0" width="1.0" height="16" rx="2"/><text x="196.0" y="178.0">0 B</text><text x="14" y="208.0">encoding/json</text><rect class="reference" x="188.0" y="195.0" width="1.0" height="16" rx="2"/><text x="196.0" y="208.0">0 B</text><text x="14" y="238.0">go-json</text><rect class="peer" x="188.0" y="225.0" width="490.7" height="16" rx="2"/><text x="685.7" y="238.0">33.91 MiB</text><text x="14" y="268.0">segmentio</text><rect class="peer" x="188.0" y="255.0" width="1.0" height="16" rx="2"/><text x="196.0" y="268.0">0 B</text><text class="panel" x="14" y="363.0">Typed owned decode · reused destination</text><line class="grid" x1="188.0" y1="374.0" x2="188.0" y2="572.0"/><text class="note" x="188.0" y="371.0" text-anchor="middle">0 B</text><line class="grid" x1="533.0" y1="374.0" x2="533.0" y2="572.0"/><text class="note" x="533.0" y="371.0" text-anchor="middle">4.77 MiB</text><line class="grid" x1="878.0" y1="374.0" x2="878.0" y2="572.0"/><text class="note" x="878.0" y="371.0" text-anchor="middle">9.54 MiB</text><text x="14" y="402.0">vibejson portable</text><rect class="portable" x="188.0" y="389.0" width="470.2" height="16" rx="2"/><text x="665.2" y="402.0">6.50 MiB</text><text x="14" y="432.0">vibejson SIMD</text><rect class="simd" x="188.0" y="419.0" width="470.2" height="16" rx="2"/><text x="665.2" y="432.0">6.50 MiB</text><text x="14" y="462.0">encoding/json</text><rect class="reference" x="188.0" y="449.0" width="64.8" height="16" rx="2"/><text x="259.8" y="462.0">916.7 KiB</text><text x="14" y="492.0">go-json</text><rect class="peer" x="188.0" y="479.0" width="473.5" height="16" rx="2"/><text x="668.5" y="492.0">6.54 MiB</text><text x="14" y="522.0">segmentio</text><rect class="peer" x="188.0" y="509.0" width="102.7" height="16" rx="2"/><text x="297.7" y="522.0">1.42 MiB</text><text x="14" y="552.0">jsoniter</text><rect class="peer" x="188.0" y="539.0" width="240.6" height="16" rx="2"/><text x="435.6" y="552.0">3.33 MiB</text><text class="panel" x="14" y="617.0">Dynamic owned decode · new any tree</text><line class="grid" x1="188.0" y1="628.0" x2="188.0" y2="826.0"/><text class="note" x="188.0" y="625.0" text-anchor="middle">0 B</text><line class="grid" x1="533.0" y1="628.0" x2="533.0" y2="826.0"/><text class="note" x="533.0" y="625.0" text-anchor="middle">23.84 MiB</text><line class="grid" x1="878.0" y1="628.0" x2="878.0" y2="826.0"/><text class="note" x="878.0" y="625.0" text-anchor="middle">47.68 MiB</text><text x="14" y="656.0">vibejson portable</text><rect class="portable" x="188.0" y="643.0" width="363.7" height="16" rx="2"/><text x="558.7" y="656.0">25.14 MiB</text><text x="14" y="686.0">vibejson SIMD</text><rect class="simd" x="188.0" y="673.0" width="363.7" height="16" rx="2"/><text x="558.7" y="686.0">25.14 MiB</text><text x="14" y="716.0">encoding/json</text><rect class="reference" x="188.0" y="703.0" width="340.1" height="16" rx="2"/><text x="535.1" y="716.0">23.51 MiB</text><text x="14" y="746.0">go-json</text><rect class="peer" x="188.0" y="733.0" width="446.3" height="16" rx="2"/><text x="641.3" y="746.0">30.85 MiB</text><text x="14" y="776.0">segmentio</text><rect class="peer" x="188.0" y="763.0" width="380.0" height="16" rx="2"/><text x="575.0" y="776.0">26.26 MiB</text><text x="14" y="806.0">jsoniter</text><rect class="peer" x="188.0" y="793.0" width="378.2" height="16" rx="2"/><text x="573.2" y="806.0">26.13 MiB</text><text class="panel" x="14" y="871.0">Typed encode · newly owned output</text><line class="grid" x1="188.0" y1="882.0" x2="188.0" y2="1080.0"/><text class="note" x="188.0" y="879.0" text-anchor="middle">0 B</text><line class="grid" x1="533.0" y1="882.0" x2="533.0" y2="1080.0"/><text class="note" x="533.0" y="879.0" text-anchor="middle">4.77 MiB</text><line class="grid" x1="878.0" y1="882.0" x2="878.0" y2="1080.0"/><text class="note" x="878.0" y="879.0" text-anchor="middle">9.54 MiB</text><text x="14" y="910.0">vibejson portable</text><rect class="portable" x="188.0" y="897.0" width="447.0" height="16" rx="2"/><text x="642.0" y="910.0">6.18 MiB</text><text x="14" y="940.0">vibejson SIMD</text><rect class="simd" x="188.0" y="927.0" width="447.0" height="16" rx="2"/><text x="642.0" y="940.0">6.18 MiB</text><text x="14" y="970.0">encoding/json</text><rect class="reference" x="188.0" y="957.0" width="451.6" height="16" rx="2"/><text x="646.6" y="970.0">6.24 MiB</text><text x="14" y="1000.0">go-json</text><rect class="peer" x="188.0" y="987.0" width="499.1" height="16" rx="2"/><text x="694.1" y="1000.0">6.90 MiB</text><text x="14" y="1030.0">segmentio</text><rect class="peer" x="188.0" y="1017.0" width="454.6" height="16" rx="2"/><text x="649.6" y="1030.0">6.28 MiB</text><text x="14" y="1060.0">jsoniter</text><rect class="peer" x="188.0" y="1047.0" width="500.9" height="16" rx="2"/><text x="695.9" y="1060.0">6.92 MiB</text><text class="note" x="14" y="1127">Source: benchmarks/results/comparison.json · full per-file time, B/op and allocs/op are retained there.</text></svg>
