<svg xmlns="http://www.w3.org/2000/svg" width="1100" height="1136" viewBox="0 0 1100 1136" role="img" aria-labelledby="title desc"><title id="title">Absolute time for one seven-file corpus pass</title><desc id="desc">Sum of 6-sample per-file medians · same input, ownership, compiler and CPU · lower is better. Measured on arm64 at commit a6efb4db.</desc><style>
text{fill:#24292f;font:14px -apple-system,BlinkMacSystemFont,"Segoe UI",sans-serif}.heading{font-size:21px;font-weight:600}.panel{font-size:16px;font-weight:600}.note{font-size:12px;fill:#57606a}.grid{stroke:#d0d7de;stroke-width:1}.portable{fill:#8250df}.simd{fill:#0969da}.reference{fill:#6e7781}.peer{fill:#1a7f37}@media(prefers-color-scheme:dark){text{fill:#f0f6fc}.note{fill:#8c959f}.grid{stroke:#30363d}.portable{fill:#bc8cff}.simd{fill:#58a6ff}.reference{fill:#8c959f}.peer{fill:#3fb950}}</style><text class="heading" x="14" y="28">Absolute time for one seven-file corpus pass</text><text class="note" x="14" y="50">Sum of 6-sample per-file medians · same input, ownership, compiler and CPU · lower is better</text><text class="note" x="14" y="69">arm64 · darwin/arm64 · go1.27.1 · commit a6efb4db</text><text class="panel" x="14" y="109.0">Strict validation · valid input</text><line class="grid" x1="188.0" y1="134.0" x2="188.0" y2="332.0"/><text class="note" x="188.0" y="131.0" text-anchor="middle">0 ns</text><line class="grid" x1="533.0" y1="134.0" x2="533.0" y2="332.0"/><text class="note" x="533.0" y="131.0" text-anchor="middle">50.00 ms</text><line class="grid" x1="878.0" y1="134.0" x2="878.0" y2="332.0"/><text class="note" x="878.0" y="131.0" text-anchor="middle">100.00 ms</text><text x="14" y="162.0">vibejson portable</text><rect class="portable" x="188.0" y="149.0" width="28.8" height="16" rx="2"/><text x="223.8" y="162.0">4.18 ms</text><text x="14" y="192.0">vibejson SIMD</text><rect class="simd" x="188.0" y="179.0" width="20.2" height="16" rx="2"/><text x="215.2" y="192.0">2.92 ms</text><text x="14" y="222.0">encoding/json</text><rect class="reference" x="188.0" y="209.0" width="40.1" height="16" rx="2"/><text x="235.1" y="222.0">5.81 ms</text><text x="14" y="252.0">go-json</text><rect class="peer" x="188.0" y="239.0" width="346.3" height="16" rx="2"/><text x="541.3" y="252.0">50.18 ms</text><text x="14" y="282.0">segmentio</text><rect class="peer" x="188.0" y="269.0" width="43.0" height="16" rx="2"/><text x="238.0" y="282.0">6.23 ms</text><text class="panel" x="14" y="363.0">Typed owned decode · reused destination</text><line class="grid" x1="188.0" y1="388.0" x2="188.0" y2="586.0"/><text class="note" x="188.0" y="385.0" text-anchor="middle">0 ns</text><line class="grid" x1="533.0" y1="388.0" x2="533.0" y2="586.0"/><text class="note" x="533.0" y="385.0" text-anchor="middle">25.00 ms</text><line class="grid" x1="878.0" y1="388.0" x2="878.0" y2="586.0"/><text class="note" x="878.0" y="385.0" text-anchor="middle">50.00 ms</text><text x="14" y="416.0">vibejson portable</text><rect class="portable" x="188.0" y="403.0" width="76.5" height="16" rx="2"/><text x="271.5" y="416.0">5.55 ms</text><text x="14" y="446.0">vibejson SIMD</text><rect class="simd" x="188.0" y="433.0" width="73.9" height="16" rx="2"/><text x="268.9" y="446.0">5.36 ms</text><text x="14" y="476.0">encoding/json</text><rect class="reference" x="188.0" y="463.0" width="329.3" height="16" rx="2"/><text x="524.3" y="476.0">23.86 ms</text><text x="14" y="506.0">go-json</text><rect class="peer" x="188.0" y="493.0" width="157.8" height="16" rx="2"/><text x="352.8" y="506.0">11.44 ms</text><text x="14" y="536.0">segmentio</text><rect class="peer" x="188.0" y="523.0" width="157.7" height="16" rx="2"/><text x="352.7" y="536.0">11.43 ms</text><text x="14" y="566.0">jsoniter</text><rect class="peer" x="188.0" y="553.0" width="223.9" height="16" rx="2"/><text x="418.9" y="566.0">16.22 ms</text><text class="panel" x="14" y="617.0">Dynamic owned decode · new any tree</text><line class="grid" x1="188.0" y1="642.0" x2="188.0" y2="840.0"/><text class="note" x="188.0" y="639.0" text-anchor="middle">0 ns</text><line class="grid" x1="533.0" y1="642.0" x2="533.0" y2="840.0"/><text class="note" x="533.0" y="639.0" text-anchor="middle">50.00 ms</text><line class="grid" x1="878.0" y1="642.0" x2="878.0" y2="840.0"/><text class="note" x="878.0" y="639.0" text-anchor="middle">100.00 ms</text><text x="14" y="670.0">vibejson portable</text><rect class="portable" x="188.0" y="657.0" width="194.6" height="16" rx="2"/><text x="389.6" y="670.0">28.21 ms</text><text x="14" y="700.0">vibejson SIMD</text><rect class="simd" x="188.0" y="687.0" width="191.1" height="16" rx="2"/><text x="386.1" y="700.0">27.70 ms</text><text x="14" y="730.0">encoding/json</text><rect class="reference" x="188.0" y="717.0" width="459.7" height="16" rx="2"/><text x="654.7" y="730.0">66.62 ms</text><text x="14" y="760.0">go-json</text><rect class="peer" x="188.0" y="747.0" width="272.0" height="16" rx="2"/><text x="467.0" y="760.0">39.42 ms</text><text x="14" y="790.0">segmentio</text><rect class="peer" x="188.0" y="777.0" width="689.1" height="16" rx="2"/><text x="884.1" y="790.0">99.87 ms</text><text x="14" y="820.0">jsoniter</text><rect class="peer" x="188.0" y="807.0" width="267.7" height="16" rx="2"/><text x="462.7" y="820.0">38.80 ms</text><text class="panel" x="14" y="871.0">Typed encode · newly owned output</text><line class="grid" x1="188.0" y1="896.0" x2="188.0" y2="1094.0"/><text class="note" x="188.0" y="893.0" text-anchor="middle">0 ns</text><line class="grid" x1="533.0" y1="896.0" x2="533.0" y2="1094.0"/><text class="note" x="533.0" y="893.0" text-anchor="middle">25.00 ms</text><line class="grid" x1="878.0" y1="896.0" x2="878.0" y2="1094.0"/><text class="note" x="878.0" y="893.0" text-anchor="middle">50.00 ms</text><text x="14" y="924.0">vibejson portable</text><rect class="portable" x="188.0" y="911.0" width="108.8" height="16" rx="2"/><text x="303.8" y="924.0">7.88 ms</text><text x="14" y="954.0">vibejson SIMD</text><rect class="simd" x="188.0" y="941.0" width="103.4" height="16" rx="2"/><text x="298.4" y="954.0">7.49 ms</text><text x="14" y="984.0">encoding/json</text><rect class="reference" x="188.0" y="971.0" width="253.2" height="16" rx="2"/><text x="448.2" y="984.0">18.34 ms</text><text x="14" y="1014.0">go-json</text><rect class="peer" x="188.0" y="1001.0" width="127.0" height="16" rx="2"/><text x="322.0" y="1014.0">9.20 ms</text><text x="14" y="1044.0">segmentio</text><rect class="peer" x="188.0" y="1031.0" width="107.3" height="16" rx="2"/><text x="302.3" y="1044.0">7.78 ms</text><text x="14" y="1074.0">jsoniter</text><rect class="peer" x="188.0" y="1061.0" width="342.4" height="16" rx="2"/><text x="537.4" y="1074.0">24.81 ms</text><text class="note" x="14" y="1127">Source: benchmarks/results/comparison.json · full per-file time, B/op and allocs/op are retained there.</text></svg>
